<svg xmlns="http://www.w3.org/2000/svg" xmlns:xlink="http://www.w3.org/1999/xlink" width="23" height="22.983" viewBox="0 0 23 22.983">
  <defs>
    <clipPath id="clip-path">
      <path id="Path_27468" data-name="Path 27468" d="M348.5-30a1.5,1.5,0,0,1-1.5-1.5,1.5,1.5,0,0,1,1.5-1.5,1.5,1.5,0,0,1,1.5,1.5A1.5,1.5,0,0,1,348.5-30Z" fill="none"/>
    </clipPath>
    <clipPath id="clip-path-2">
      <path id="Path_27467" data-name="Path 27467" d="M0,0H375V-792H0Z" fill="none"/>
    </clipPath>
  </defs>
  <g id="Group_22873" data-name="Group 22873" transform="translate(-11231.5 -5067.517)">
    <g id="Group_22871" data-name="Group 22871" transform="translate(10901 5113)" clip-path="url(#clip-path)">
      <g id="Group_22870" data-name="Group 22870" clip-path="url(#clip-path-2)">
        <path id="Path_27466" data-name="Path 27466" d="M342-38h13v13H342Z" fill="#d93e11"/>
      </g>
    </g>
    <g id="Group_22872" data-name="Group 22872" transform="translate(11232 5073)">
      <path id="Path_27463" data-name="Path 27463" d="M19.25,0H2.75A2.907,2.907,0,0,0,0,2.742V14.469A2.535,2.535,0,0,0,2.539,17H19.461A2.535,2.535,0,0,0,22,14.469V2.657A2.835,2.835,0,0,0,19.25,0Z" fill="none" stroke="#d93e11" stroke-linecap="round" stroke-linejoin="round" stroke-width="1"/>
    </g>
    <path id="Path_27469" data-name="Path 27469" d="M17,3.82V1.989C17,.164,16.618-.362,14.422.235,12.809.674,3.372,3.372,3.372,3.372.465,4.5.022,5.464.022,7.655L0,9" transform="translate(11232 5068)" fill="none" stroke="#d93e11" stroke-linejoin="round" stroke-width="1"/>
  </g>
</svg>
